solid SimpleAscii
facet normal -0.000000E+000 -0.000000E+000 -1.000000E+000 
	outer loop
		vertex +0.000000E+000 +0.000000E+000 +0.000000E+000 
		vertex +0.000000E+000 +2.000000E+000 +0.000000E+000 
		vertex +2.000000E+000 +0.000000E+000 +0.000000E+000 
	endloop
endfacet
facet normal +0.000000E+000 +0.000000E+000 -1.000000E+000 
	outer loop
		vertex +0.000000E+000 +2.000000E+000 +0.000000E+000 
		vertex +2.000000E+000 +2.000000E+000 +0.000000E+000 
		vertex +2.000000E+000 +0.000000E+000 +0.000000E+000 
	endloop
endfacet
facet normal +0.000000E+000 -8.944272E-001 +4.472136E-001 
	outer loop
		vertex +1.000000E+000 +1.000000E+000 +2.000000E+000 
		vertex +0.000000E+000 +0.000000E+000 +0.000000E+000 
		vertex +2.000000E+000 +0.000000E+000 +0.000000E+000 
	endloop
endfacet
facet normal +8.944272E-001 +0.000000E+000 +4.472136E-001 
	outer loop
		vertex +1.000000E+000 +1.000000E+000 +2.000000E+000 
		vertex +2.000000E+000 +0.000000E+000 +0.000000E+000 
		vertex +2.000000E+000 +2.000000E+000 +0.000000E+000 
	endloop
endfacet
facet normal +0.000000E+000 +8.944272E-001 +4.472136E-001 
	outer loop
		vertex +1.000000E+000 +1.000000E+000 +2.000000E+000 
		vertex +2.000000E+000 +2.000000E+000 +0.000000E+000 
		vertex +0.000000E+000 +2.000000E+000 +0.000000E+000 
	endloop
endfacet
facet normal -8.944272E-001 +0.000000E+000 +4.472136E-001 
	outer loop
		vertex +1.000000E+000 +1.000000E+000 +2.000000E+000 
		vertex +0.000000E+000 +2.000000E+000 +0.000000E+000 
		vertex +0.000000E+000 +0.000000E+000 +0.000000E+000 
	endloop
endfacet
endsolid SimpleAscii
